<svg width="318" height="314" viewBox="0 0 318 314" fill="none" xmlns="http://www.w3.org/2000/svg">
<path d="M148.5 148V63C142.167 61.6667 133 59.6667 121 57C109 54 99.8333 51.8333 93.5 50.5C74.5 46.5 59.5 44.5 48.5 44.5C27.5 44.5 17 50.3333 17 62C17 75 21.3333 86 30 95C39 104 47 108.5 54 108.5C61 108.5 67.1667 106.667 72.5 103C78.1667 99.3333 83.1667 97.5 87.5 97.5C93.1667 97.5 96 100.5 96 106.5C96 112.167 93.3333 116.833 88 120.5C83 124.167 75 126 64 126C46.3333 126 31.3333 118.333 19 103C6.66667 87.6667 0.5 72 0.5 56C0.5 40 4.16667 28 11.5 20C18.8333 12 28 8 39 8C64.3333 8 102 16 152 32C156 11 163.5 0.499974 174.5 0.499974C179.5 0.499974 182 14.1666 182 41.5C214.333 51.5 242.167 56.5 265.5 56.5C280.5 56.5 293.667 51.6667 305 42C308.333 39.3333 311.167 38 313.5 38C316.167 38 317.5 39.1667 317.5 41.5C317.5 50.5 310.833 58.6667 297.5 66C284.167 73 268.167 76.5 249.5 76.5C230.833 76.5 208.333 74.1667 182 69.5C182.667 115.5 183 147.167 183 164.5C183 181.833 182.333 196.667 181 209C180 221.333 177.5 234.333 173.5 248C169.5 261.333 164.167 272.667 157.5 282C151.167 291 142.167 298.5 130.5 304.5C119.167 310.5 105.833 313.5 90.5 313.5C75.5 313.5 61.8333 310 49.5 303C37.5 296 31.5 285.167 31.5 270.5C31.5 261.5 33.8333 254.167 38.5 248.5C43.1667 242.5 49.3333 239.5 57 239.5C65 239.5 69 241.333 69 245C69 246.667 68 250 66 255C64 259.667 63 264.5 63 269.5C63 274.167 66 279.333 72 285C78.3333 290.667 87.3333 293.5 99 293.5C132 293.5 148.5 245 148.5 148Z" fill="#09BC8A"/>
</svg>
